<svg width="44" height="44" viewBox="0 0 44 44" fill="none" xmlns="http://www.w3.org/2000/svg">
<path d="M37.0857 28.9793C37.464 28.762 37.6979 28.3596 37.6993 27.9233L37.7213 20.8501C37.7227 20.4138 37.9565 20.0113 38.3348 19.7941L42.1691 17.5916C42.5473 17.3744 43.0125 17.3752 43.39 17.5936C43.7675 17.8121 44 18.2151 44 18.6513V31.5106C44 31.9482 43.7659 32.3524 43.3864 32.5703L28.9161 40.8816C28.5401 41.0975 28.0777 41.098 27.7012 40.8829L16.3452 34.3878C15.9644 34.1703 15.7294 33.7654 15.7292 33.3269V26.8428C15.7292 26.8355 15.7378 26.8306 15.7451 26.8343C15.7512 26.8379 15.7598 26.8343 15.7598 26.8257V26.8184C15.7598 26.8135 15.7622 26.8086 15.7671 26.8061L25.1198 21.4331C25.1284 21.4282 25.1247 21.4148 25.1149 21.4148C25.1095 21.4148 25.1051 21.4104 25.1051 21.405L25.1235 15.048C25.1252 14.6105 24.8929 14.2054 24.5145 13.9859C24.136 13.7664 23.669 13.7659 23.2901 13.9847L16.3391 17.99C15.9616 18.2074 15.4969 18.2074 15.1193 17.99L8.14634 13.9749C7.76825 13.7572 7.30279 13.7575 6.92501 13.9758C6.54724 14.194 6.31444 14.5971 6.31418 15.0334V26.5226C6.31447 26.9584 6.08269 27.3614 5.70585 27.5803C5.329 27.7992 4.86411 27.8009 4.48568 27.5847L0.616021 25.3724C0.234463 25.1545 -0.000733319 24.7485 1.71782e-06 24.3091L0.0342266 4.22741C0.0351745 3.79172 0.267977 3.38947 0.645283 3.1716C1.02259 2.95373 1.48734 2.95318 1.86517 3.17016L15.1205 10.7836C15.4975 11 15.961 11 16.3379 10.7836L29.5896 3.17016C29.968 2.95286 30.4335 2.95376 30.8111 3.17252C31.1886 3.39129 31.4209 3.79473 31.4205 4.23108V24.3176C31.4207 24.755 31.1872 25.1591 30.8082 25.3773L23.8682 29.3741C23.4888 29.5928 23.2554 29.9979 23.2564 30.4358C23.2574 30.8738 23.4927 31.2777 23.8731 31.4947L27.7012 33.674C28.0776 33.8883 28.5394 33.8874 28.9149 33.6716L37.0857 28.9793ZM37.8887 10.9608C37.8891 11.4009 38.1259 11.8068 38.5089 12.0235C38.8918 12.2403 39.3617 12.2345 39.7392 12.0083L43.406 9.80823C43.7742 9.5876 43.9997 9.19 44 8.76076V4.27752C43.9992 3.83769 43.7622 3.43221 43.3793 3.21574C42.9964 2.99927 42.5268 3.0052 42.1495 3.23127L38.4827 5.43133C38.1145 5.65196 37.8891 6.04956 37.8887 6.47881V10.962V10.9608Z" fill="#343A40"/>
</svg>
