<svg width="44" height="44" viewBox="0 0 44 44" fill="none" xmlns="http://www.w3.org/2000/svg">
<path d="M32.3226 18.7465C33.2625 18.7465 33.8835 18.9143 34.2025 19.2668C34.5214 19.6193 34.5885 20.2067 34.4207 21.046C34.2528 21.9188 33.9171 22.5566 33.4304 22.9258C32.9436 23.2951 32.2051 23.4797 31.2148 23.4797H29.7209L30.6441 18.7465H32.3226Z" fill="#343A40"/>
<path d="M13.0706 18.7465C14.0105 18.7465 14.6315 18.9143 14.9504 19.2668C15.2693 19.6193 15.3365 20.2067 15.1686 21.046C15.0008 21.9188 14.6651 22.5566 14.1783 22.9258C13.6916 23.2951 12.9531 23.4797 11.9628 23.4797H10.4689L11.3921 18.7465H13.0706Z" fill="#343A40"/>
<path fill-rule="evenodd" clip-rule="evenodd" d="M22 32.4092C33.402 32.4092 42.6451 27.7275 42.6451 21.9523C42.6451 16.1772 33.402 11.4955 22 11.4955C10.598 11.4955 1.35486 16.1772 1.35486 21.9523C1.35486 27.7275 10.598 32.4092 22 32.4092ZM28.781 28.2802H26.3137L28.5125 16.9505H33.2625C34.6892 16.9505 35.7299 17.3198 36.3845 18.0751C37.0391 18.8304 37.2405 19.871 36.9719 21.2138C36.8712 21.7677 36.6866 22.2712 36.4348 22.7244C36.183 23.1776 35.8474 23.5972 35.4277 23.9833C34.9242 24.4532 34.3871 24.7722 33.7828 24.9736C33.1786 25.175 32.4233 25.2757 31.4833 25.2757H29.3685L28.781 28.2802ZM19.5327 13.946H21.9832L21.3958 16.9505H23.5778C24.9541 16.9505 25.894 17.1855 26.4144 17.6722C26.9347 18.159 27.0858 18.9311 26.8843 20.0053L25.8605 25.2757H23.3763L24.3499 20.2571C24.4673 19.6864 24.417 19.3004 24.2324 19.0989C24.0477 18.8975 23.6281 18.78 23.0071 18.78H21.0433L19.7844 25.2757H17.3339L19.5327 13.946ZM9.52899 28.2802H7.06165L9.26044 16.9505H14.0105C15.4372 16.9505 16.4778 17.3198 17.1324 18.0751C17.787 18.8304 17.9885 19.871 17.7199 21.2138C17.6192 21.7677 17.4346 22.2712 17.1828 22.7244C16.931 23.1776 16.5953 23.5972 16.1757 23.9833C15.6722 24.4532 15.1351 24.7722 14.5308 24.9736C13.9266 25.175 13.1713 25.2757 12.2313 25.2757H10.1165L9.52899 28.2802Z" fill="#343A40"/>
<path fill-rule="evenodd" clip-rule="evenodd" d="M43.4844 21.9523C43.4844 28.191 33.8655 33.2484 22 33.2484C10.1345 33.2484 0.515625 28.191 0.515625 21.9523C0.515625 15.7137 10.1345 10.6562 22 10.6562C33.8655 10.6562 43.4844 15.7137 43.4844 21.9523ZM43.1406 21.9523C43.1406 24.8804 40.8771 27.6138 37.0318 29.6356C33.2024 31.649 27.8885 32.9047 22 32.9047C16.1115 32.9047 10.7976 31.649 6.96823 29.6356C3.12293 27.6138 0.859375 24.8804 0.859375 21.9523C0.859375 19.0243 3.12293 16.2908 6.96823 14.2691C10.7976 12.2557 16.1115 11 22 11C27.8885 11 33.2024 12.2557 37.0318 14.2691C40.8771 16.2908 43.1406 19.0243 43.1406 21.9523Z" fill="#343A40"/>
</svg>
