<svg width="44" height="44" viewBox="0 0 44 44" fill="none" xmlns="http://www.w3.org/2000/svg">
<g clip-path="url(#clip0_30_465)">
<path d="M43.8295 26.3476C43.5657 25.5729 42.8746 25.0332 41.9808 24.9036C41.5594 24.8426 41.0767 24.8687 40.5056 24.9829C39.5102 25.182 38.7716 25.2578 38.2326 25.2726C40.267 21.9417 41.9213 18.1433 42.8737 14.5678C44.4136 8.78638 43.5907 6.15257 42.6291 4.96116C40.0842 1.80796 36.3712 0.113909 31.8917 0.0619803C29.5022 0.0337001 27.4044 0.491209 26.3102 0.820126C25.2913 0.645912 24.1956 0.548558 23.046 0.530525C20.8915 0.49722 18.9876 0.952659 17.3608 1.88876C16.46 1.59355 15.0147 1.17723 13.3454 0.911471C9.41935 0.286448 6.25521 0.773518 3.94079 2.35898C1.1382 4.27869 -0.161069 7.61398 0.079254 12.2723C0.155466 13.7514 1.00874 18.2513 2.35211 22.519C3.1242 24.9719 3.94749 27.009 4.79914 28.574C6.00686 30.7931 7.29912 32.1 8.7499 32.5692C9.56313 32.832 11.0405 33.0159 12.5946 31.7611C12.7915 31.9923 13.0542 32.2222 13.403 32.4356C13.8459 32.7065 14.3875 32.9278 14.9283 33.059C16.8776 33.5316 18.7034 33.4133 20.2611 32.751C20.2707 33.0197 20.2781 33.2764 20.2844 33.498C20.2948 33.8575 20.3049 34.21 20.3185 34.5396C20.4108 36.7687 20.5672 38.5019 21.0306 39.7145C21.056 39.7813 21.0902 39.8829 21.1264 39.9906C21.3575 40.677 21.7441 41.8259 22.7275 42.7259C23.746 43.6579 24.9778 43.9439 26.1059 43.9438C26.6717 43.9438 27.2116 43.8719 27.685 43.7734C29.373 43.4227 31.2899 42.8883 32.6765 40.9737C33.9875 39.1637 34.6248 36.4375 34.7402 32.1419C34.7551 32.0205 34.7689 31.9045 34.7822 31.794C34.7912 31.7194 34.8003 31.6431 34.8096 31.567L35.1185 31.5933L35.1981 31.5986C36.9172 31.6745 39.0193 31.321 40.3102 30.7395C41.3303 30.2804 44.5991 28.6071 43.8295 26.3476Z" fill="black"/>
<path d="M40.89 26.7871C35.7785 27.8095 35.4271 26.1313 35.4271 26.1313C40.8241 18.3658 43.0802 8.50859 41.1332 6.09611C35.8217 -0.48471 26.6272 2.62759 26.4738 2.70839L26.4244 2.71697C25.4145 2.51368 24.2843 2.39258 23.0141 2.37248C20.7012 2.33572 18.9468 2.96045 17.6155 3.93942C17.6155 3.93942 1.2135 -2.61282 1.97634 12.1801C2.13862 15.3272 6.62794 35.9923 11.9826 29.7505C13.9398 27.4681 15.8307 25.5382 15.8307 25.5382C16.77 26.1432 17.8944 26.4518 19.0731 26.341L19.1647 26.2656C19.1362 26.549 19.1492 26.8262 19.2014 27.1543C17.8219 28.6488 18.2273 28.9112 15.4697 29.4617C12.6794 30.0193 14.3186 31.0121 15.3888 31.2715C16.6863 31.5861 19.6879 32.0318 21.7161 29.2787L21.6352 29.5928C22.1757 30.0126 22.5552 32.3234 22.4916 34.4181C22.428 36.5129 22.3855 37.9511 22.8114 39.0744C23.2373 40.1977 23.6617 42.7252 27.2868 41.972C30.3159 41.3425 31.8856 39.7113 32.1039 36.9904C32.2589 35.056 32.6096 35.342 32.6317 33.6126L32.913 32.7938C33.2374 30.1716 32.9645 29.3257 34.8307 29.7192L35.2842 29.7578C36.6578 29.8184 38.4555 29.5436 39.5106 29.068C41.7825 28.0456 43.13 26.3385 40.8898 26.7871H40.89Z" fill="#343A40"/>
<path d="M19.5756 13.5875C19.1151 13.5253 18.6978 13.5829 18.4868 13.7378C18.368 13.825 18.3313 13.926 18.3215 13.9955C18.2949 14.1797 18.4281 14.3833 18.5098 14.4883C18.741 14.7856 19.079 14.99 19.4135 15.035C19.462 15.0415 19.5102 15.0447 19.5581 15.0447C20.116 15.0447 20.6231 14.6235 20.6678 14.3126C20.7237 13.9233 20.1408 13.6638 19.5756 13.5875Z" fill="white"/>
<path d="M34.8354 13.5998C34.7915 13.2947 34.2313 13.2077 33.6998 13.2793C33.1692 13.351 32.6545 13.5833 32.6975 13.8891C32.732 14.127 33.1748 14.5331 33.6991 14.533C33.7433 14.533 33.788 14.5301 33.833 14.524C34.183 14.477 34.4398 14.2615 34.5617 14.1373C34.7476 13.9481 34.855 13.737 34.8354 13.5998Z" fill="white"/>
<path d="M43.591 26.6709C43.3961 26.0994 42.7688 25.9154 41.7265 26.1242C38.6319 26.7435 37.5236 26.3145 37.1597 26.0547C39.5651 22.5012 41.5439 18.2061 42.6114 14.1984C43.1171 12.3001 43.3965 10.5372 43.4192 9.10032C43.4444 7.52293 43.1675 6.36403 42.5961 5.65604C40.2926 2.80181 36.9119 1.27084 32.8195 1.22876C30.0061 1.19812 27.6291 1.89635 27.1683 2.09264C26.1979 1.85861 25.1399 1.71494 23.9883 1.69662C21.8762 1.66351 20.0507 2.15383 18.5391 3.1532C17.8826 2.91631 16.1858 2.3515 14.1109 2.02741C10.5234 1.46722 7.67275 1.89162 5.63838 3.28918C3.21096 4.95682 2.09034 7.93777 2.30749 12.1491C2.38055 13.566 3.213 17.9246 4.5269 22.0989C6.25631 27.5928 8.13612 30.7031 10.1142 31.3428C10.3457 31.4176 10.6127 31.4701 10.907 31.4701C11.6286 31.4701 12.5132 31.1546 13.4336 30.0817C14.9624 28.2982 16.3898 26.8036 16.916 26.2606C17.6936 26.6654 18.5477 26.8913 19.4215 26.914C19.423 26.9362 19.4253 26.9583 19.4274 26.9804C19.2521 27.182 19.1083 27.3587 18.9857 27.5096C18.3804 28.2547 18.2544 28.4098 16.3058 28.7989C15.7516 28.9098 14.2792 29.204 14.2578 30.2047C14.2343 31.2979 15.9979 31.7571 16.1989 31.8058C16.8991 31.9758 17.5737 32.0596 18.217 32.0596C19.7817 32.0595 21.1585 31.5609 22.2589 30.5961C22.225 34.4938 22.3926 38.3345 22.8752 39.5047C23.2704 40.4626 24.2361 42.8038 27.2863 42.8036C27.7337 42.8036 28.2264 42.7532 28.7684 42.6406C31.9516 41.9787 33.3339 40.6144 33.8687 37.6067C34.1549 35.9992 34.646 32.1606 34.8768 30.1017C35.3643 30.2491 35.9919 30.3166 36.6703 30.3165C38.0852 30.3165 39.7178 30.025 40.7416 29.5642C41.8917 29.0462 43.9674 27.7751 43.591 26.6709ZM36.0103 12.7574C35.9997 13.3653 35.9134 13.9171 35.822 14.4932C35.7236 15.1127 35.6218 15.7532 35.5962 16.5307C35.5709 17.2874 35.6683 18.0741 35.7626 18.8348C35.9531 20.3714 36.1485 21.9534 35.3919 23.5145C35.2744 23.312 35.1609 23.091 35.0568 22.8464C34.9628 22.6254 34.7587 22.2703 34.4761 21.7789C33.3762 19.8663 30.8006 15.3874 32.1191 13.5597C32.5117 13.0156 33.5084 12.4564 36.0103 12.7574ZM32.9777 2.45969C36.6445 2.53822 39.5449 3.86838 41.5986 6.41301C43.1736 8.36484 41.4392 17.246 36.4183 24.9078C36.3687 24.8467 36.3182 24.785 36.2659 24.7217C36.2451 24.6964 36.2239 24.6707 36.2024 24.6447C37.4999 22.5668 37.2461 20.511 37.0203 18.6883C36.9276 17.9403 36.84 17.2338 36.8622 16.5702C36.8853 15.8667 36.9812 15.2635 37.0739 14.6802C37.188 13.9613 37.304 13.2175 37.2719 12.3406C37.2958 12.2487 37.3055 12.14 37.293 12.011C37.2113 11.1701 36.2213 8.65375 34.2034 6.37586C33.0998 5.13015 31.4901 3.73595 29.2923 2.7956C30.2376 2.60562 31.5304 2.42845 32.9777 2.45969ZM12.4596 29.2963C11.4456 30.4786 10.7452 30.252 10.515 30.1777C9.01439 29.6923 7.27339 26.617 5.73837 21.7403C4.41014 17.5206 3.63389 13.2775 3.57252 12.0877C3.37853 8.32473 4.31919 5.70216 6.3685 4.29288C9.70356 1.99942 15.1868 3.37215 17.39 4.06841C17.3583 4.09866 17.3254 4.12704 17.294 4.15778C13.6786 7.69853 13.7644 13.7479 13.7732 14.1176C13.7729 14.2603 13.7852 14.4623 13.8022 14.7402C13.8643 15.7576 13.9801 17.6513 13.6709 19.7959C13.3834 21.7887 14.0169 23.7392 15.4086 25.1473C15.5527 25.2931 15.7031 25.4299 15.8585 25.5587C15.2389 26.2021 13.8926 27.6246 12.4596 29.2963ZM16.3232 24.2974C15.2014 23.1626 14.692 21.5839 14.9253 19.9659C15.2519 17.7005 15.1313 15.7274 15.0666 14.6675C15.0575 14.5192 15.0495 14.3892 15.0447 14.2866C15.5729 13.8326 18.0206 12.5608 19.766 12.9486C20.5627 13.1256 21.0479 13.6515 21.2497 14.5562C22.2942 19.24 21.388 21.1922 20.66 22.7609C20.5099 23.0841 20.3681 23.3896 20.247 23.7057L20.1532 23.95C19.9156 24.5677 19.6946 25.142 19.5576 25.6874C18.3653 25.6839 17.2052 25.19 16.3232 24.2974ZM16.5062 30.6142C16.158 30.5298 15.8449 30.3833 15.6611 30.2618C15.8146 30.1917 16.0877 30.0966 16.5614 30.002C18.8537 29.5443 19.2077 29.2213 19.9808 28.2695C20.1581 28.0513 20.359 27.8039 20.6372 27.5026C20.6373 27.5024 20.6374 27.5023 20.6375 27.5022C21.052 27.0522 21.2415 27.1285 21.5853 27.2668C21.8639 27.3786 22.1352 27.7172 22.2453 28.0898C22.2973 28.2658 22.3558 28.6 22.1645 28.8598C20.5495 31.0525 18.1963 31.0243 16.5062 30.6142ZM28.5028 41.4396C25.6985 42.0222 24.7056 40.6347 24.0513 39.0486C23.629 38.0245 23.4215 33.4067 23.5687 28.3073C23.5707 28.2394 23.5607 28.1739 23.5414 28.1123C23.5246 27.9934 23.4988 27.8731 23.4631 27.752C23.244 27.01 22.7104 26.3893 22.0702 26.132C21.8159 26.0298 21.3489 25.8423 20.7879 25.9814C20.9076 25.5034 21.1151 24.9637 21.34 24.3792L21.4344 24.1333C21.5407 23.8561 21.6739 23.569 21.8149 23.2651C22.5769 21.6236 23.6204 19.3755 22.4878 14.2966C22.0636 12.3943 20.6471 11.4654 18.4996 11.6811C17.2121 11.8103 16.0344 12.314 15.4469 12.6028C15.3206 12.6649 15.2051 12.7248 15.0972 12.7833C15.2611 10.8665 15.8806 7.28457 18.1979 5.01831C19.6568 3.59149 21.5999 2.88685 23.9674 2.92479C28.6321 2.99889 31.6234 5.32023 33.3115 7.25462C34.7662 8.92157 35.5539 10.6006 35.8683 11.5062C33.5042 11.2732 31.8963 11.7257 31.0812 12.8557C29.3079 15.3136 32.0513 20.0844 33.3698 22.3771C33.6115 22.7974 33.8202 23.1605 33.8859 23.3148C34.3152 24.3238 34.871 24.9974 35.2769 25.4892C35.4013 25.6399 35.522 25.786 35.6138 25.9136C34.8978 26.1139 33.6116 26.5763 33.7288 28.8881C33.6343 30.0482 32.962 35.4792 32.6205 37.398C32.1698 39.9329 31.2078 40.8772 28.5028 41.4396ZM40.2083 28.4501C39.4761 28.7797 38.2508 29.0269 37.0868 29.0799C35.8011 29.1384 35.1467 28.9403 34.9928 28.8185C34.9204 27.3779 35.4735 27.2273 36.0587 27.068C36.1507 27.0429 36.2404 27.0185 36.327 26.9892C36.3809 27.0316 36.4398 27.0738 36.5043 27.1151C37.5377 27.7765 39.3808 27.8478 41.9827 27.3271C41.9922 27.3251 42.0018 27.3233 42.0112 27.3214C41.6604 27.6396 41.0598 28.0667 40.2083 28.4501Z" fill="white"/>
</g>
<defs>
<clipPath id="clip0_30_465">
<rect width="44" height="44" fill="white"/>
</clipPath>
</defs>
</svg>
