<svg width="44" height="44" viewBox="0 0 44 44" fill="none" xmlns="http://www.w3.org/2000/svg">
<g clip-path="url(#clip0_109_153)">
<path d="M3.4375 0H40.5625C42.461 0 44 1.53902 44 3.4375V40.5625C44 42.461 42.461 44 40.5625 44H3.4375C1.53902 44 0 42.461 0 40.5625V3.4375C0 1.53902 1.53902 0 3.4375 0Z" fill="#343A40"/>
<path d="M25.8703 34.4566V39.2038C26.6423 39.5995 27.5555 39.8961 28.6096 40.094C29.6637 40.2918 30.7747 40.3906 31.9428 40.3906C33.081 40.3906 34.1624 40.2818 35.1868 40.0642C36.2111 39.8466 37.1095 39.4881 37.8814 38.9888C38.6535 38.4893 39.2647 37.8366 39.7152 37.0305C40.1655 36.2245 40.3906 35.2282 40.3906 34.0414C40.3906 33.181 40.2619 32.4268 40.0046 31.779C39.7473 31.1312 39.376 30.5551 38.891 30.0508C38.4062 29.5463 37.8245 29.094 37.1467 28.6933C36.4686 28.2929 35.7039 27.9146 34.8526 27.5586C34.2291 27.3013 33.67 27.0517 33.175 26.8094C32.6801 26.5671 32.2594 26.3199 31.9131 26.0676C31.5666 25.8155 31.2993 25.5484 31.1113 25.2665C30.9232 24.9846 30.8292 24.6658 30.8292 24.3097C30.8292 23.9833 30.9133 23.6892 31.0815 23.4271C31.2498 23.165 31.4875 22.94 31.7943 22.7521C32.1011 22.5641 32.4772 22.4183 32.9227 22.3144C33.368 22.2105 33.863 22.1586 34.4073 22.1586C34.8033 22.1586 35.2215 22.1884 35.6618 22.2477C36.1023 22.307 36.5453 22.3984 36.9908 22.5222C37.4361 22.6457 37.869 22.8015 38.2898 22.9895C38.7104 23.1773 39.099 23.3949 39.4553 23.6421V19.2065C38.7327 18.9296 37.9433 18.7244 37.0872 18.5909C36.2311 18.4573 35.2486 18.3906 34.14 18.3906C33.0117 18.3906 31.9428 18.5118 30.9332 18.7541C29.9236 18.9963 29.0352 19.3746 28.2681 19.8889C27.501 20.4033 26.8948 21.0585 26.4493 21.8546C26.004 22.6507 25.7812 23.6026 25.7812 24.7103C25.7812 26.1245 26.1895 27.331 27.0062 28.33C27.8228 29.3287 29.0623 30.1744 30.7252 30.8667C31.3785 31.1338 31.9873 31.3957 32.5514 31.653C33.1157 31.9101 33.6031 32.1771 34.0139 32.454C34.4247 32.7308 34.7488 33.0325 34.9864 33.3589C35.2239 33.6853 35.3427 34.0562 35.3427 34.4716C35.3427 34.778 35.2684 35.0625 35.1199 35.3246C34.9716 35.5865 34.7463 35.8141 34.4444 36.007C34.1426 36.1998 33.7664 36.3505 33.3161 36.4593C32.8658 36.5681 32.3386 36.6226 31.7348 36.6226C30.7055 36.6226 29.6861 36.4421 28.6765 36.081C27.6667 35.7201 26.7314 35.1787 25.8703 34.4566ZM17.9578 22.6432H24.0625V18.7344H7.04688V22.6432H13.1217V40.0469H17.9578V22.6432Z" fill="white"/>
</g>
<defs>
<clipPath id="clip0_109_153">
<rect width="44" height="44" fill="white"/>
</clipPath>
</defs>
</svg>
