<svg width="44" height="44" viewBox="0 0 44 44" fill="none" xmlns="http://www.w3.org/2000/svg">
<path d="M12.3997 18.4075C12.3997 18.949 12.4582 19.388 12.5606 19.7099C12.6777 20.0319 12.824 20.3831 13.0289 20.7636C13.1021 20.8807 13.1313 20.9977 13.1313 21.1002C13.1313 21.2465 13.0435 21.3928 12.8533 21.5392L11.9314 22.1538C11.7997 22.2416 11.668 22.2855 11.5509 22.2855C11.4045 22.2855 11.2582 22.2123 11.1119 22.0806C10.907 21.8611 10.7314 21.627 10.585 21.3928C10.4387 21.1441 10.2924 20.866 10.1314 20.5294C8.98994 21.8758 7.55582 22.5489 5.82901 22.5489C4.59976 22.5489 3.61929 22.1977 2.90222 21.4953C2.18516 20.7929 1.81931 19.8563 1.81931 18.6856C1.81931 17.4417 2.25833 16.4319 3.151 15.671C4.04367 14.91 5.22902 14.5295 6.73632 14.5295C7.23387 14.5295 7.74606 14.5734 8.28751 14.6466C8.82897 14.7198 9.38506 14.8368 9.97042 14.9685V13.9003C9.97042 12.7881 9.73627 12.0125 9.28262 11.5588C8.81434 11.1052 8.0241 10.8857 6.89729 10.8857C6.3851 10.8857 5.85828 10.9442 5.31682 11.0759C4.77537 11.2076 4.24855 11.3686 3.73636 11.5735C3.50222 11.6759 3.32661 11.7344 3.22417 11.7637C3.12173 11.793 3.04856 11.8076 2.99003 11.8076C2.78515 11.8076 2.68272 11.6613 2.68272 11.354V10.6369C2.68272 10.4028 2.71198 10.2272 2.78515 10.1247C2.85832 10.0223 2.99003 9.91984 3.1949 9.8174C3.70709 9.55399 4.32172 9.33448 5.03878 9.15888C5.75584 8.96863 6.51681 8.88083 7.32167 8.88083C9.06311 8.88083 10.3363 9.27595 11.1558 10.0662C11.9606 10.8564 12.3704 12.0564 12.3704 13.6661V18.4075H12.3997ZM6.45827 20.6319C6.94119 20.6319 7.43875 20.5441 7.96557 20.3685C8.49239 20.1929 8.96068 19.8709 9.35579 19.4319C9.58993 19.1539 9.76554 18.8465 9.85335 18.4953C9.94115 18.1441 9.99968 17.7197 9.99968 17.2222V16.6076C9.5753 16.5051 9.12165 16.4173 8.65336 16.3588C8.18508 16.3002 7.73142 16.271 7.27777 16.271C6.2973 16.271 5.58024 16.4612 5.09732 16.8563C4.6144 17.2514 4.38025 17.8075 4.38025 18.5392C4.38025 19.227 4.55586 19.7392 4.92171 20.0904C5.27292 20.4563 5.78511 20.6319 6.45827 20.6319ZM18.2093 22.2123C17.9459 22.2123 17.7703 22.1684 17.6532 22.066C17.5362 21.9782 17.4337 21.7733 17.3459 21.4953L13.9069 10.1833C13.8191 9.89057 13.7752 9.70033 13.7752 9.59789C13.7752 9.36375 13.8923 9.23204 14.1265 9.23204H15.5606C15.8386 9.23204 16.0289 9.27595 16.1313 9.37838C16.2484 9.46619 16.3362 9.67106 16.424 9.94911L18.8825 19.6368L21.1654 9.94911C21.2386 9.65643 21.3264 9.46619 21.4434 9.37838C21.5605 9.29058 21.7654 9.23204 22.0288 9.23204H23.1995C23.4775 9.23204 23.6678 9.27595 23.7849 9.37838C23.9019 9.46619 24.0044 9.67106 24.0629 9.94911L26.3751 19.7538L28.9067 9.94911C28.9945 9.65643 29.097 9.46619 29.1994 9.37838C29.3165 9.29058 29.5067 9.23204 29.7701 9.23204H31.1311C31.3652 9.23204 31.4969 9.34912 31.4969 9.59789C31.4969 9.67106 31.4823 9.74423 31.4677 9.83204C31.453 9.91984 31.4238 10.0369 31.3652 10.1979L27.8385 21.5099C27.7507 21.8026 27.6482 21.9928 27.5311 22.0806C27.4141 22.1684 27.2238 22.227 26.9751 22.227H25.7165C25.4385 22.227 25.2483 22.1831 25.1312 22.0806C25.0141 21.9782 24.9117 21.788 24.8531 21.4953L22.5849 12.0564L20.3312 21.4807C20.2581 21.7733 20.1703 21.9636 20.0532 22.066C19.9361 22.1684 19.7313 22.2123 19.4678 22.2123H18.2093ZM37.0139 22.6075C36.253 22.6075 35.492 22.5197 34.7603 22.3441C34.0286 22.1684 33.4579 21.9782 33.0774 21.7587C32.8433 21.627 32.6823 21.4807 32.6238 21.3489C32.5652 21.2172 32.536 21.0709 32.536 20.9392V20.1929C32.536 19.8856 32.653 19.7392 32.8725 19.7392C32.9603 19.7392 33.0481 19.7538 33.1359 19.7831C33.2237 19.8124 33.3555 19.8709 33.5018 19.9295C33.9993 20.149 34.5408 20.3246 35.1115 20.4416C35.6969 20.5587 36.2676 20.6172 36.853 20.6172C37.7749 20.6172 38.492 20.4563 38.9895 20.1343C39.4871 19.8124 39.7505 19.3441 39.7505 18.7441C39.7505 18.3344 39.6188 17.9978 39.3554 17.7197C39.092 17.4417 38.5944 17.1929 37.8773 16.9588L35.7554 16.3002C34.6871 15.9637 33.8969 15.4661 33.414 14.8076C32.9311 14.1637 32.6823 13.4466 32.6823 12.6857C32.6823 12.071 32.814 11.5296 33.0774 11.0613C33.3408 10.593 33.692 10.1833 34.1311 9.8613C34.5701 9.52472 35.0676 9.27595 35.653 9.10034C36.2383 8.92473 36.853 8.85156 37.4969 8.85156C37.8188 8.85156 38.1554 8.8662 38.4773 8.9101C38.8139 8.954 39.1212 9.01254 39.4285 9.07107C39.7212 9.14424 39.9993 9.21741 40.2627 9.30521C40.5261 9.39302 40.731 9.48082 40.8773 9.56863C41.0822 9.6857 41.2285 9.80277 41.3163 9.93447C41.4041 10.0515 41.448 10.2125 41.448 10.4174V11.1052C41.448 11.4125 41.331 11.5735 41.1114 11.5735C40.9944 11.5735 40.8041 11.5149 40.5554 11.3979C39.7212 11.0174 38.7846 10.8271 37.7456 10.8271C36.9115 10.8271 36.253 10.9588 35.7993 11.2369C35.3457 11.5149 35.1115 11.9393 35.1115 12.5393C35.1115 12.9491 35.2579 13.3003 35.5505 13.5783C35.8432 13.8564 36.3847 14.1344 37.1603 14.3832L39.2383 15.0417C40.2919 15.3783 41.0529 15.8466 41.5066 16.4466C41.9602 17.0466 42.1797 17.7344 42.1797 18.4953C42.1797 19.1246 42.048 19.6953 41.7992 20.1929C41.5358 20.6904 41.1846 21.1294 40.731 21.4807C40.2773 21.8465 39.7359 22.1099 39.1066 22.3002C38.4481 22.505 37.7603 22.6075 37.0139 22.6075Z" fill="#252F3E"/>
<path d="M39.7797 29.7196C34.9652 33.2757 27.9701 35.1634 21.9556 35.1634C13.5265 35.1634 5.93144 32.0464 0.194934 26.866C-0.258718 26.4562 0.151032 25.9002 0.692488 26.2221C6.89728 29.822 14.5508 32.0025 22.4678 32.0025C27.8092 32.0025 33.6774 30.8903 39.0773 28.6074C39.8822 28.2416 40.57 29.1343 39.7797 29.7196ZM41.7846 27.4367C41.17 26.6465 37.7163 27.0562 36.1505 27.2465C35.6822 27.305 35.6091 26.8953 36.0334 26.5879C38.7846 24.6563 43.3065 25.2124 43.8333 25.8563C44.3602 26.5148 43.687 31.0367 41.1114 33.2025C40.7163 33.5391 40.3358 33.3635 40.5114 32.9244C41.0968 31.4757 42.3992 28.2123 41.7846 27.4367Z" fill="#FF9900"/>
</svg>
