<svg width="254" height="329" viewBox="0 0 254 329" fill="none" xmlns="http://www.w3.org/2000/svg">
<path d="M39.0599 33.4638C29.5847 33.4638 21.9584 41.0647 21.9584 50.5083V223.812C21.9584 224.735 22.0461 225.632 22.1911 226.514C22.2075 226.63 22.213 226.742 22.235 226.857C22.2569 227.017 22.279 227.178 22.3229 227.336C24.5811 242.506 38.5187 251.831 70.6066 275.276C128.605 317.653 124.612 317.635 182.971 275.755C220.054 249.143 233.047 240.95 231.982 221.013V50.5082C231.982 41.0646 224.351 33.4636 214.875 33.4636L39.0599 33.4638Z" fill="black" fill-opacity="0.0705882"/>
<path d="M39.0599 21.8854C29.5847 21.8854 21.9584 29.4863 21.9584 38.9299V212.234C21.9584 213.156 22.0461 214.054 22.1911 214.936C22.2075 215.052 22.213 215.164 22.235 215.279C22.2569 215.439 22.279 215.6 22.3229 215.757C24.5811 230.927 38.5187 240.253 70.6066 263.698C128.605 306.074 124.612 306.057 182.971 264.176C220.054 237.565 233.047 229.371 231.982 209.435V38.9298C231.982 29.4862 224.351 21.8852 214.875 21.8852L39.0599 21.8854Z" fill="#E87D0D"/>
<path d="M177.604 56.1705C177.862 53.3012 180.087 51.4815 183.487 51.4815C186.891 51.4815 189.115 53.3012 189.373 56.1705H177.604ZM189.024 63.2551C188.154 65.3815 186.102 66.6402 183.315 66.6402C179.825 66.6402 177.475 64.4687 177.38 61.0384H197.444C197.444 60.682 197.444 60.3843 197.444 60.0294C197.444 51.4364 192.383 46.6076 183.315 46.6076C174.509 46.6076 169.184 51.4815 169.184 59.1255C169.184 66.8162 174.592 71.6826 183.315 71.6826C188.549 71.6826 192.608 69.8945 195.11 66.7515L189.024 63.2551Z" fill="white" fill-opacity="0.811224"/>
<path d="M88.582 56.1827C88.8475 53.3133 91.0731 51.4937 94.4756 51.4937C97.8736 51.4937 100.098 53.3133 100.359 56.1827H88.582ZM100.01 63.2672C99.138 65.3997 97.0875 66.6584 94.2945 66.6584C90.8106 66.6584 88.4552 64.4808 88.3632 61.0491H108.422C108.422 60.6972 108.422 60.4009 108.422 60.046C108.422 51.4486 103.363 46.6183 94.2945 46.6183C85.4843 46.6183 80.17 51.4937 80.17 59.1377C80.17 66.8283 85.5748 71.6948 94.2945 71.6948C99.5273 71.6948 103.589 69.9127 106.095 66.7652L100.01 63.2672Z" fill="white" fill-opacity="0.811224"/>
<path d="M78.373 41.4088H71.1381V70.9096H78.373V41.4088Z" fill="white" fill-opacity="0.811224"/>
<path d="M110.222 49.2487H117.498V51.0052C120.074 48.2652 123.167 46.8801 126.655 46.8801C130.673 46.8801 133.715 48.2652 135.286 50.6232C136.597 52.5707 136.683 54.9212 136.683 58.01V70.9115H129.397V59.5756C129.397 54.8716 128.448 52.7 124.304 52.7C120.117 52.7 117.498 55.1858 117.498 59.359V70.9115H110.222V49.2487Z" fill="white" fill-opacity="0.811224"/>
<path d="M160.115 59.4887C160.115 63.5265 157.408 66.1747 153.219 66.1747C149.027 66.1747 146.32 63.6167 146.32 59.5353C146.32 55.3937 148.991 52.8372 153.219 52.8372C157.408 52.8372 160.115 55.4388 160.115 59.4887ZM160.115 50.2295C158.275 48.264 155.614 47.1858 151.914 47.1858C143.932 47.1858 138.482 52.0913 138.482 59.4436C138.482 66.6514 143.894 71.6938 151.783 71.6938C155.399 71.6938 158.055 70.7825 160.115 68.7388V70.9103H167.395V39.5388L160.115 41.4095V50.2295Z" fill="white" fill-opacity="0.811224"/>
<path d="M54.6009 52.8371C58.8318 52.8371 61.4919 55.3936 61.4919 59.5352C61.4919 63.6166 58.7895 66.1746 54.6009 66.1746C50.4153 66.1746 47.7114 63.5264 47.7114 59.4886C47.7114 55.4387 50.4153 52.8371 54.6009 52.8371ZM47.7114 41.4094L40.4281 39.5387V70.9102H47.7114V68.7387C49.7605 70.7824 52.4206 71.6937 56.0404 71.6937C63.9333 71.6937 69.338 66.6513 69.338 59.4434C69.338 52.0912 63.8865 47.1857 55.9091 47.1857C52.2018 47.1857 49.5417 48.2639 47.7114 50.2294V41.4094Z" fill="white" fill-opacity="0.811224"/>
<path d="M199.239 70.9098V49.247H206.52V50.5854C208.7 47.9687 211.007 46.6664 213.631 46.6664C214.151 46.6664 214.806 46.7506 215.677 46.8363V53.0126C214.975 52.9208 214.194 52.9208 213.364 52.9208C209.131 52.9208 206.52 55.7029 206.52 60.434V70.9098H199.239Z" fill="white" fill-opacity="0.811224"/>
<path d="M128.761 173.329C129.075 167.737 131.823 162.81 135.968 159.317C140.033 155.886 145.505 153.79 151.475 153.79C157.439 153.79 162.911 155.886 166.979 159.317C171.121 162.81 173.869 167.737 174.187 173.323C174.501 179.069 172.184 184.407 168.119 188.364C163.973 192.389 158.077 194.915 151.475 194.915C144.873 194.915 138.965 192.389 134.823 188.364C130.755 184.407 128.443 179.069 128.761 173.329Z" fill="white"/>
<path d="M92.5899 184.629C92.6284 186.817 93.3287 191.07 94.3791 194.391C96.5867 201.421 100.331 207.924 105.542 213.656C110.889 219.547 117.473 224.279 125.078 227.638C133.072 231.166 141.734 232.964 150.73 232.95C159.712 232.938 168.374 231.104 176.368 227.549C183.973 224.157 190.551 219.405 195.889 213.511C201.097 207.756 204.836 201.241 207.049 194.211C208.162 190.659 208.865 187.054 209.147 183.437C209.423 179.874 209.307 176.304 208.8 172.737C207.809 165.788 205.396 159.267 201.681 153.322C198.284 147.86 193.904 143.078 188.697 139.053L188.708 139.044L136.155 98.8267C136.108 98.7912 136.069 98.7528 136.019 98.7203C132.571 96.0823 126.773 96.0912 122.981 98.7351C119.147 101.409 118.708 105.83 122.12 108.619L122.105 108.633L144.024 126.398L77.2165 126.469C77.1838 126.469 77.1512 126.469 77.1274 126.469C71.6054 126.475 66.2969 130.086 65.2465 134.649C64.1664 139.298 67.917 143.155 73.6587 143.175L73.6498 143.196L107.512 143.131L47.0868 189.358C47.0097 189.414 46.9266 189.473 46.8554 189.529C41.1553 193.88 39.3126 201.113 42.903 205.691C46.5468 210.346 54.2943 210.355 60.0538 205.718L93.032 178.818C93.032 178.818 92.5513 182.449 92.5899 184.629ZM177.332 196.79C170.537 203.689 161.024 207.602 150.73 207.623C140.422 207.64 130.909 203.763 124.114 196.876C120.794 193.519 118.355 189.657 116.85 185.543C115.375 181.5 114.803 177.209 115.183 172.879C115.542 168.647 116.806 164.611 118.823 160.958C120.806 157.368 123.535 154.124 126.906 151.379C133.511 146.015 141.921 143.11 150.716 143.099C159.519 143.087 167.923 145.964 174.534 151.311C177.899 154.044 180.626 157.276 182.608 160.861C184.634 164.51 185.89 168.532 186.263 172.776C186.637 177.1 186.065 181.385 184.59 185.431C183.083 189.556 180.652 193.418 177.332 196.79Z" fill="white"/>
</svg>
