<svg width="44" height="44" viewBox="0 0 44 44" fill="none" xmlns="http://www.w3.org/2000/svg">
<path fill-rule="evenodd" clip-rule="evenodd" d="M6.10899 39.6014L2.57812 0H41.3767L37.842 39.5949L21.9539 44L6.10899 39.6014Z" fill="#0071BC"/>
<path fill-rule="evenodd" clip-rule="evenodd" d="M22.01 40.6308L34.8324 37.1034L37.8367 3.29797H22.01V40.6308Z" fill="#29ABE2"/>
<path fill-rule="evenodd" clip-rule="evenodd" d="M10.6602 17.8473L11.0856 22.6971L22.01 17.8473V12.9896L10.6602 17.8473Z" fill="#B3B3B3"/>
<path fill-rule="evenodd" clip-rule="evenodd" d="M34.1091 7.80432L22.01 12.9897V17.8473L33.692 12.6541L34.1091 7.80432Z" fill="#E6E6E6"/>
<path fill-rule="evenodd" clip-rule="evenodd" d="M22.01 30.5368L21.9725 30.5425L16.5547 29.0875L16.2008 25.2191H11.3249L12.0053 32.8401L21.9714 35.5996L22.01 35.5905V30.5368Z" fill="#E6E6E6"/>
<path fill-rule="evenodd" clip-rule="evenodd" d="M22.01 17.8473V22.6971H27.9415L27.4024 29.0379L22.01 30.5409V35.5941L31.943 32.8347L33.251 17.8473H22.01Z" fill="white"/>
<path fill-rule="evenodd" clip-rule="evenodd" d="M22.01 17.8473H10.6602L11.0856 22.6971H22.01V17.8473Z" fill="#E6E6E6"/>
<path fill-rule="evenodd" clip-rule="evenodd" d="M22.01 12.6541V7.80432H21.9607H9.79796L10.2283 12.6541H22.01Z" fill="#E6E6E6"/>
<path fill-rule="evenodd" clip-rule="evenodd" d="M22.01 7.80432V12.5933V12.6541H33.692L34.1091 7.80432H22.01Z" fill="white"/>
</svg>
