<svg width="44" height="44" viewBox="0 0 44 44" fill="none" xmlns="http://www.w3.org/2000/svg">
<path d="M14.724 44C18.772 44 22.0573 40.7147 22.0573 36.6667V29.3334H14.724C10.676 29.3334 7.39062 32.6187 7.39062 36.6667C7.39062 40.7147 10.676 44 14.724 44Z" fill="#0ACF83"/>
<path d="M7.39062 22C7.39062 17.952 10.676 14.6666 14.724 14.6666H22.0573V29.3333H14.724C10.676 29.3333 7.39062 26.048 7.39062 22Z" fill="#A259FF"/>
<path d="M7.39062 7.33333C7.39062 3.28533 10.676 0 14.724 0H22.0573V14.6667H14.724C10.676 14.6667 7.39062 11.3813 7.39062 7.33333Z" fill="#F24E1E"/>
<path d="M22.0573 0H29.3906C33.4386 0 36.7239 3.28533 36.7239 7.33333C36.7239 11.3813 33.4386 14.6667 29.3906 14.6667H22.0573V0Z" fill="#FF7262"/>
<path d="M36.7239 22C36.7239 26.048 33.4386 29.3333 29.3906 29.3333C25.3426 29.3333 22.0573 26.048 22.0573 22C22.0573 17.952 25.3426 14.6666 29.3906 14.6666C33.4386 14.6666 36.7239 17.952 36.7239 22Z" fill="#1ABCFE"/>
</svg>
