<svg width="44" height="44" viewBox="0 0 44 44" fill="none" xmlns="http://www.w3.org/2000/svg">
<path fill-rule="evenodd" clip-rule="evenodd" d="M22.0002 1.03125C10.1361 1.03125 0.515625 10.65 0.515625 22.5158C0.515625 32.0082 6.6716 40.0616 15.2081 42.9024C16.2818 43.1013 16.676 42.4364 16.676 41.8689C16.676 41.3566 16.6561 39.6642 16.6468 37.8689C10.6698 39.1686 9.40858 35.334 9.40858 35.334C8.43127 32.8507 7.02311 32.1904 7.02311 32.1904C5.07382 30.857 7.17004 30.8843 7.17004 30.8843C9.32747 31.0359 10.4635 33.0983 10.4635 33.0983C12.3797 36.3829 15.4895 35.4333 16.7155 34.8843C16.9083 33.4957 17.4651 32.548 18.0795 32.0114C13.3075 31.4682 8.29109 29.626 8.29109 21.3937C8.29109 19.0481 9.13037 17.1315 10.5047 15.6269C10.2817 15.0858 9.54627 12.9006 10.7129 9.94128C10.7129 9.94128 12.517 9.36386 16.6226 12.1435C18.3364 11.6675 20.1743 11.4288 22.0002 11.4206C23.826 11.4288 25.6654 11.6675 27.3823 12.1435C31.483 9.36386 33.2847 9.94128 33.2847 9.94128C34.4541 12.9006 33.7183 15.0858 33.4953 15.6269C34.8728 17.1315 35.7064 19.0481 35.7064 21.3937C35.7064 29.6455 30.6804 31.4625 25.8963 31.9944C26.6669 32.6611 27.3535 33.9686 27.3535 35.973C27.3535 38.8477 27.3286 41.1613 27.3286 41.8689C27.3286 42.4406 27.7153 43.1106 28.8044 42.8996C37.3362 40.0555 43.4844 32.005 43.4844 22.5158C43.4844 10.65 33.8653 1.03125 22.0002 1.03125ZM8.56229 31.6364C8.51497 31.7432 8.34704 31.7752 8.19406 31.7019C8.03823 31.6318 7.95071 31.4863 8.00123 31.3792C8.04748 31.2693 8.21576 31.2387 8.37124 31.3123C8.52742 31.3824 8.61637 31.5294 8.56229 31.6364ZM9.61909 32.5794C9.51663 32.6744 9.31633 32.6303 9.18042 32.4802C9.03989 32.3304 9.01356 32.1301 9.11745 32.0337C9.22311 31.9387 9.41737 31.9831 9.55825 32.1329C9.69878 32.2845 9.72618 32.4834 9.61909 32.5794ZM10.3441 33.7859C10.2125 33.8774 9.99721 33.7916 9.86415 33.6006C9.73252 33.4095 9.73252 33.1804 9.867 33.0886C10.0004 32.9968 10.2125 33.0793 10.3473 33.269C10.4786 33.4632 10.4786 33.6923 10.3441 33.7859ZM11.5702 35.1832C11.4525 35.3131 11.2017 35.2782 11.0181 35.101C10.8302 34.9278 10.7779 34.6819 10.896 34.5521C11.0152 34.4219 11.2675 34.4585 11.4525 34.6342C11.6389 34.8072 11.6958 35.0548 11.5702 35.1832ZM13.1549 35.6549C13.103 35.8232 12.8614 35.8997 12.618 35.8282C12.375 35.7545 12.216 35.5574 12.2651 35.3874C12.3156 35.218 12.5583 35.1383 12.8034 35.2148C13.046 35.2881 13.2054 35.4838 13.1549 35.6549ZM14.9583 35.855C14.9644 36.0322 14.758 36.1791 14.5026 36.1823C14.2457 36.188 14.0379 36.0446 14.0351 35.8703C14.0351 35.6914 14.2368 35.5458 14.4937 35.5416C14.7491 35.5366 14.9583 35.6789 14.9583 35.855ZM16.73 35.7871C16.7606 35.96 16.583 36.1375 16.3294 36.1849C16.08 36.2304 15.8491 36.1237 15.8174 35.9522C15.7865 35.775 15.9672 35.5975 16.2162 35.5516C16.4703 35.5075 16.6976 35.6113 16.73 35.7871Z" fill="#343A40"/>
</svg>
