<svg width="44" height="44" viewBox="0 0 44 44" fill="none" xmlns="http://www.w3.org/2000/svg">
<g clip-path="url(#clip0_109_256)">
<path fill-rule="evenodd" clip-rule="evenodd" d="M0 0H44V44H0V0Z" fill="#F7DF1E"/>
<path fill-rule="evenodd" clip-rule="evenodd" d="M11.5692 36.7697L14.9364 34.7319C15.586 35.8837 16.1769 36.8582 17.5944 36.8582C18.9531 36.8582 19.8097 36.3267 19.8097 34.2594V20.2003H23.9445V34.3178C23.9445 38.6005 21.4342 40.5498 17.7716 40.5498C14.4639 40.5498 12.5438 38.8367 11.5692 36.7693" fill="black"/>
<path fill-rule="evenodd" clip-rule="evenodd" d="M26.1905 36.3266L29.5573 34.3772C30.4435 35.8246 31.5954 36.8878 33.6333 36.8878C35.3465 36.8878 36.4391 36.0312 36.4391 34.8498C36.4391 33.4321 35.3168 32.9299 33.4265 32.1032L32.393 31.6598C29.4097 30.3901 27.4308 28.7952 27.4308 25.428C27.4308 22.3268 29.7936 19.9639 33.4857 19.9639C36.1144 19.9639 38.0046 20.8796 39.3631 23.272L36.1437 25.3393C35.4348 24.0694 34.6671 23.5674 33.4858 23.5674C32.2748 23.5674 31.5068 24.3353 31.5068 25.3393C31.5068 26.5799 32.2748 27.0821 34.0467 27.8501L35.0804 28.2931C38.5951 29.7995 40.5741 31.3351 40.5741 34.7907C40.5741 38.5124 37.6501 40.5501 33.722 40.5501C29.8824 40.5501 27.4013 38.719 26.1906 36.3266" fill="black"/>
</g>
<defs>
<clipPath id="clip0_109_256">
<rect width="44" height="44" fill="white"/>
</clipPath>
</defs>
</svg>
