<svg width="45" height="44" viewBox="0 0 45 44" fill="none" xmlns="http://www.w3.org/2000/svg">
<path d="M44.1608 0H0.160828V44H44.1608V0Z" fill="#343A40"/>
<path d="M24.5302 19.6164C24.8342 19.2729 25.0849 18.9271 25.3982 18.6323C26.3591 17.7249 27.4986 17.2676 28.8262 17.2793C29.5573 17.2862 30.2791 17.3373 30.9823 17.5415C32.593 18.008 33.5284 19.1151 33.974 20.6887C34.3082 21.8677 34.3709 23.0792 34.3732 24.2931C34.3778 26.8554 34.3662 29.4177 34.3732 31.98C34.3732 32.219 34.3059 32.284 34.0715 32.2817C32.7509 32.2701 31.4303 32.2701 30.112 32.2817C29.8799 32.2817 29.8288 32.2121 29.8311 31.9916C29.8381 29.5523 29.8404 27.1153 29.8311 24.676C29.8311 24.0656 29.7894 23.4552 29.6199 22.8611C29.3043 21.7656 28.5198 21.2086 27.3733 21.2689C25.809 21.3525 24.9944 22.1277 24.7948 23.7198C24.746 24.1004 24.7251 24.4811 24.7251 24.864C24.7251 27.236 24.7228 29.608 24.7321 31.9776C24.7321 32.2144 24.6741 32.284 24.4327 32.2817C23.1028 32.2701 21.7729 32.2724 20.443 32.2817C20.2295 32.2817 20.1692 32.226 20.1692 32.0101C20.1761 27.3149 20.1761 22.6197 20.1692 17.9245C20.1692 17.6924 20.2457 17.639 20.4639 17.639C21.7265 17.6483 22.9891 17.6506 24.2517 17.639C24.4837 17.639 24.5441 17.7109 24.5395 17.9314C24.5255 18.4931 24.5348 19.0548 24.5348 19.6141L24.5302 19.6164Z" fill="#FDFDFD"/>
<path d="M17.2982 24.9824C17.2982 27.3056 17.2935 29.6289 17.3028 31.9498C17.3028 32.2074 17.2402 32.2863 16.9733 32.284C15.6527 32.2701 14.3344 32.2724 13.0138 32.284C12.8026 32.284 12.7376 32.2329 12.7399 32.0148C12.7469 27.3126 12.7469 22.6104 12.7399 17.9059C12.7399 17.5508 12.8954 17.6111 13.8864 17.7597C14.7429 17.8873 15.6178 17.8734 16.4696 17.7133C17.2262 17.5717 17.3028 17.6343 17.3028 17.9593C17.2959 20.3011 17.2982 22.6429 17.2982 24.9847V24.9824Z" fill="#FDFDFD"/>
<path d="M17.6626 12.9809C17.6626 15.0442 15.2952 16.5667 13.1414 14.9514C11.4054 12.8068 12.9511 10.3583 15.0307 10.3583C16.4719 10.3583 17.6603 11.5443 17.6626 12.9809Z" fill="#FDFDFD"/>
</svg>
