<?xml version="1.0" encoding="UTF-8" standalone="no"?>
<!-- Created with Inkscape (http://www.inkscape.org/) -->

<svg
   width="600"
   height="132"
   viewBox="0 0 158.74999 34.925001"
   version="1.1"
   id="svg275"
   inkscape:version="1.2.2 (732a01da63, 2022-12-09)"
   sodipodi:docname="phaser.svg"
   xmlns:inkscape="http://www.inkscape.org/namespaces/inkscape"
   xmlns:sodipodi="http://sodipodi.sourceforge.net/DTD/sodipodi-0.dtd"
   xmlns:xlink="http://www.w3.org/1999/xlink"
   xmlns="http://www.w3.org/2000/svg"
   xmlns:svg="http://www.w3.org/2000/svg">
  <sodipodi:namedview
     id="namedview277"
     pagecolor="#ffffff"
     bordercolor="#000000"
     borderopacity="0.25"
     inkscape:showpageshadow="2"
     inkscape:pageopacity="0"
     inkscape:pagecheckerboard="0"
     inkscape:deskcolor="#d1d1d1"
     inkscape:document-units="px"
     showgrid="false"
     inkscape:zoom="0.914906"
     inkscape:cx="101.64979"
     inkscape:cy="560.71334"
     inkscape:window-width="2560"
     inkscape:window-height="1334"
     inkscape:window-x="-11"
     inkscape:window-y="2149"
     inkscape:window-maximized="1"
     inkscape:current-layer="layer1" />
  <defs
     id="defs272">
    <clipPath
       id="clippath">
      <path
         class="cls-1"
         d="m 524.48,180.32 h -50.35 l 50.35,41.94 v 25.16 h -96.5 v -25.16 h 54.55 l -54.55,-37.74 v -29.35 h 96.5 v 25.16 z m -264.34,67.1 h -29.37 v -92.26 h 29.37 v 33.55 h 29.37 v -33.55 h 29.37 v 92.26 h -29.37 v -33.55 h -29.37 z m 113.29,-62.9 -20.98,62.9 h -29.37 l 33.57,-92.26 h 33.57 l 33.57,92.26 h -29.37 l -20.98,-62.9 z M 134.27,155.17 v 92.26 h 29.37 v -62.9 h 37.76 v 4.19 h -33.57 l 12.59,29.35 h 46.15 v -62.9 h -92.31 z m 478.32,29.35 v -29.35 h -83.92 v 92.26 h 83.92 v -25.16 h -58.74 v -4.19 h 58.74 v -29.35 h -58.74 v -4.19 h 58.74 z m 79.72,29.35 h 20.98 v -58.71 h -96.5 v 92.26 h 29.37 v -62.9 h 37.76 v 4.19 h -33.57 l 33.57,79.68 h 29.37 z"
         id="path4" />
    </clipPath>
    <radialGradient
       inkscape:collect="always"
       xlink:href="#radial-gradient"
       id="radialGradient202"
       gradientUnits="userSpaceOnUse"
       cx="427.97"
       cy="289.35001"
       fx="427.97"
       fy="289.35001"
       r="289.42999" />
    <radialGradient
       id="radial-gradient"
       cx="427.97"
       cy="289.35001"
       fx="427.97"
       fy="289.35001"
       r="289.42999"
       gradientUnits="userSpaceOnUse">
      <stop
         offset="0"
         stop-color="#bfebfd"
         id="stop7" />
      <stop
         offset="1"
         stop-color="#bfebfd"
         stop-opacity="0"
         id="stop9" />
    </radialGradient>
    <radialGradient
       id="radial-gradient-2"
       cx="427.97"
       cy="184.52"
       fx="427.97"
       fy="184.52"
       r="134.23"
       xlink:href="#radial-gradient" />
    <radialGradient
       id="radialGradient255"
       cx="427.97"
       cy="289.35001"
       fx="427.97"
       fy="289.35001"
       r="289.42999"
       gradientUnits="userSpaceOnUse">
      <stop
         offset="0"
         stop-color="#bfebfd"
         id="stop251" />
      <stop
         offset="1"
         stop-color="#bfebfd"
         stop-opacity="0"
         id="stop253" />
    </radialGradient>
  </defs>
  <g
     inkscape:label="Warstwa 1"
     inkscape:groupmode="layer"
     id="layer1">
    <g
       class="cls-10"
       id="g38"
       transform="matrix(0.26458333,0,0,0.26458333,-33.169669,-38.096951)"
       style="isolation:isolate">
      <g
         id="Tweaked">
        <path
           d="m 698.7,218.06 h 18.78 v -67.1 H 423.77 c 0,11.93 0.45,22.9 0.42,34.83 0,0.79 0.28,1.22 0.9,1.67 25.34,18.15 44.63,30.59 44.63,30.59 h -45.96 c 0,0 0.49,9.35 0.49,15.36 -0.06,0.01 -0.17,2.04 -0.17,2.04 l -31.69,-84.5 h -37.96 c 0,0 -22.34,58.49 -31.58,86.22 -0.1,0 -0.19,-4.02 -0.28,-4.03 v -71.31 c 0,-7.11 0.49,-10.88 0.49,-10.88 H 285.3 V 184.5 H 264.32 V 150.95 H 130.05 v 100.64 h 37.76 c 0,0 0.37,-33.42 0.37,-51.01 0.09,-0.02 0.18,-0.03 0.26,-0.05 2.6,6.7 5.12,14.93 7.76,21.71 h 50.35 v 29.35 h 37.76 v -33.55 h 20.98 v 33.55 h 70.33 l 18.09,-55.39 17.47,55.39 h 259.14 v -51.32 l 30.9,72.27 38.43,0.02 -20.98,-54.52 z M 524.48,184.51 v 32.35 l -40.76,-32.35 z"
           id="path15" />
        <path
           class="cls-5"
           d="m 524.48,180.32 h -50.35 l 50.35,41.94 v 25.16 h -96.5 v -25.16 h 54.55 l -54.55,-37.74 v -29.35 h 96.5 v 25.16 z m -264.34,67.1 h -29.37 v -92.26 h 29.37 v 33.55 h 29.37 v -33.55 h 29.37 v 92.26 h -29.37 v -33.55 h -29.37 z m 113.29,-62.9 -20.98,62.9 h -29.37 l 33.57,-92.26 h 33.57 l 33.57,92.26 h -29.37 l -20.98,-62.9 z M 134.27,155.17 v 92.26 h 29.37 v -62.9 h 37.76 v 4.19 h -33.57 l 12.59,29.35 h 46.15 v -62.9 h -92.31 z m 478.32,29.35 v -29.35 h -83.92 v 92.26 h 83.92 v -25.16 h -58.74 v -4.19 h 58.74 v -29.35 h -58.74 v -4.19 h 58.74 z m 79.72,29.35 h 20.98 v -58.71 h -96.5 v 92.26 h 29.37 v -62.9 h 37.76 v 4.19 h -33.57 l 33.57,79.68 h 29.37 z"
           id="path17"
           style="fill:#8fb7e5" />
        <g
           class="cls-2"
           clip-path="url(#clippath)"
           id="g35">
          <path
             class="cls-9"
             d="M 427.97,0 C 587.86,0 717.48,129.55 717.48,289.35 717.48,449.15 587.86,578.7 427.97,578.7 268.08,578.7 138.46,449.16 138.46,289.35 138.46,129.54 268.08,0 427.97,0 Z"
             id="path19"
             style="fill:url(#radialGradient202)" />
          <g
             class="cls-6"
             id="g23"
             style="mix-blend-mode:overlay">
            <path
               class="cls-7"
               d="m 427.97,50.32 c 74.15,0 134.27,60.08 134.27,134.19 0,74.11 -60.11,134.19 -134.27,134.19 -74.16,0 -134.27,-60.08 -134.27,-134.19 0,-74.11 60.11,-134.19 134.27,-134.19 z"
               id="path21"
               style="fill:url(#radial-gradient-2)" />
          </g>
          <g
             class="cls-8"
             id="g27"
             style="mix-blend-mode:soft-light">
            <path
               class="cls-4"
               d="M 167.83,130 H 276.92 L 109.09,276.77 H 0 Z m 180.42,0 h 29.37 L 209.79,276.77 h -29.37 z m 75.52,0 H 495.1 L 327.27,276.77 h -71.33 z m 100.7,0 h 54.55 L 411.19,276.77 h -54.55 z m 79.72,0 h 29.37 L 465.73,276.77 h -29.37 z m 100.7,0 h 29.37 L 566.43,276.77 h -29.37 z"
               id="path25"
               style="fill:#b8eefe" />
          </g>
          <g
             class="cls-8"
             id="g31"
             style="mix-blend-mode:soft-light">
            <path
               class="cls-4"
               d="M 167.83,130 H 276.92 L 109.09,276.77 H 0 Z m 180.42,0 h 29.37 L 209.79,276.77 h -29.37 z m 75.52,0 H 495.1 L 327.27,276.77 h -71.33 z m 100.7,0 h 54.55 L 411.19,276.77 h -54.55 z m 79.72,0 h 29.37 L 465.73,276.77 h -29.37 z m 100.7,0 h 29.37 L 566.43,276.77 h -29.37 z"
               id="path29"
               style="fill:#b8eefe" />
          </g>
          <path
             class="cls-3"
             d="M 415.38,159.36 134.26,155.17 H 713.28 Z"
             id="path33"
             style="fill:#ffffff" />
        </g>
      </g>
    </g>
  </g>
</svg>
