<svg width="44" height="44" viewBox="0 0 44 44" fill="none" xmlns="http://www.w3.org/2000/svg">
<path d="M36.1768 15.0947C35.7204 14.9376 35.2474 14.7889 34.7604 14.6483C34.8405 14.3217 34.9139 13.9992 34.9792 13.6823C36.0514 8.47772 35.3504 4.28489 32.9566 2.90443C30.6612 1.58075 26.9073 2.9609 23.116 6.26034C22.7514 6.57761 22.3858 6.91352 22.0204 7.26557C21.7769 7.03264 21.5338 6.80755 21.2913 6.59225C17.3179 3.06428 13.3352 1.57754 10.9437 2.96199C8.65054 4.28951 7.97143 8.23117 8.93656 13.1636C9.02976 13.64 9.1387 14.1265 9.2619 14.6212C8.69823 14.7812 8.15407 14.9518 7.6334 15.1332C2.97504 16.7573 0 19.3027 0 21.9429C0 24.6698 3.19371 27.4049 8.04575 29.0633C8.42866 29.1941 8.82597 29.3179 9.23542 29.4354C9.10252 29.9704 8.98692 30.4946 8.88988 31.006C7.96963 35.8528 8.68828 39.7013 10.9754 41.0204C13.3377 42.3827 17.3024 40.9825 21.163 37.6078C21.4681 37.3411 21.7744 37.0582 22.0811 36.7617C22.4788 37.1446 22.8758 37.507 23.2707 37.8469C27.0101 41.0648 30.7034 42.3642 32.9884 41.0414C35.3484 39.6752 36.1153 35.5409 35.1196 30.5109C35.0435 30.1268 34.955 29.7343 34.8557 29.3349C35.1341 29.2526 35.4074 29.1676 35.6739 29.0792C40.7181 27.408 44 24.7062 44 21.9429C44 19.2932 40.929 16.7306 36.1768 15.0947ZM35.0828 27.2951C34.8422 27.3747 34.5953 27.4517 34.3438 27.5263C33.7869 25.7634 33.0354 23.8889 32.1157 21.9521C32.9933 20.0615 33.7158 18.2109 34.2571 16.4594C34.7072 16.5896 35.144 16.727 35.565 16.872C39.6367 18.2737 42.1203 20.3461 42.1203 21.9429C42.1203 23.6439 39.4381 25.8519 35.0828 27.2951ZM33.2756 30.876C33.716 33.1002 33.7788 35.1111 33.4872 36.6831C33.2251 38.0957 32.6981 39.0375 32.0465 39.4147C30.6599 40.2173 27.6945 39.174 24.4965 36.422C24.1299 36.1065 23.7606 35.7697 23.3902 35.4132C24.63 34.0572 25.8691 32.4809 27.0784 30.7302C29.2055 30.5415 31.2151 30.2329 33.0375 29.8116C33.1272 30.1737 33.207 30.5288 33.2756 30.876ZM15.0006 39.276C13.6458 39.7544 12.5668 39.7681 11.9146 39.392C10.5267 38.5915 9.9497 35.5015 10.7367 31.3565C10.8269 30.8818 10.9342 30.3942 11.0578 29.8958C12.8603 30.2944 14.8552 30.5812 16.9873 30.754C18.2048 32.4671 19.4797 34.0417 20.7644 35.4205C20.4837 35.6914 20.2041 35.9494 19.9261 36.1925C18.219 37.6847 16.5082 38.7435 15.0006 39.276ZM8.65367 27.2846C6.50819 26.5513 4.73637 25.5983 3.52187 24.5583C2.43056 23.6237 1.87959 22.6958 1.87959 21.9429C1.87959 20.3408 4.26825 18.2972 8.25212 16.9082C8.73551 16.7396 9.24153 16.5808 9.76667 16.4316C10.3173 18.2226 11.0395 20.0951 11.9111 21.9887C11.0282 23.9103 10.2957 25.8127 9.73972 27.6247C9.36536 27.5171 9.00266 27.4038 8.65367 27.2846ZM10.7812 12.8026C9.95432 8.57663 10.5035 5.38872 11.8854 4.58877C13.3575 3.73657 16.6125 4.95162 20.0432 7.99785C20.2625 8.19255 20.4826 8.39634 20.7034 8.60718C19.425 9.97988 18.1618 11.5427 16.9551 13.2456C14.8858 13.4374 12.9049 13.7456 11.0837 14.1581C10.9692 13.6975 10.8678 13.245 10.7812 12.8026ZM29.7608 17.4891C29.3254 16.7371 28.8785 16.0029 28.4228 15.2887C29.8267 15.4662 31.1718 15.7017 32.4349 15.99C32.0557 17.2054 31.583 18.4761 31.0266 19.7788C30.6275 19.0211 30.2054 18.2571 29.7608 17.4891ZM22.021 9.95051C22.888 10.8898 23.7562 11.9385 24.6102 13.0763C23.7497 13.0357 22.8784 13.0145 22 13.0145C21.1299 13.0145 20.2651 13.0352 19.4098 13.0751C20.2647 11.9479 21.1404 10.9006 22.021 9.95051ZM14.2316 17.5021C13.7967 18.2563 13.3824 19.0161 12.9895 19.7774C12.4421 18.4793 11.9739 17.2027 11.5914 15.9701C12.8467 15.6892 14.1854 15.4595 15.5804 15.2854C15.1183 16.0062 14.6677 16.7458 14.2316 17.502V17.5021ZM15.6206 28.7346C14.1793 28.5738 12.8205 28.3559 11.5654 28.0827C11.954 26.8281 12.4327 25.5243 12.9916 24.1982C13.3855 24.9589 13.8014 25.7191 14.239 26.4749H14.2391C14.6848 27.2448 15.1466 27.9991 15.6206 28.7346ZM22.073 34.0679C21.1821 33.1067 20.2935 32.0434 19.4256 30.8997C20.2681 30.9328 21.1271 30.9497 22 30.9497C22.8968 30.9497 23.7834 30.9295 24.656 30.8906C23.7992 32.0549 22.9341 33.1198 22.073 34.0679ZM31.0446 24.1306C31.6327 25.4711 32.1284 26.768 32.5221 28.0013C31.2463 28.2923 29.8689 28.5267 28.4176 28.7009C28.8744 27.9771 29.3253 27.2302 29.7683 26.462C30.2166 25.6847 30.6422 24.9063 31.0446 24.1306ZM28.1402 25.5229C27.4524 26.7155 26.7462 27.8539 26.0294 28.9286C24.7237 29.0219 23.3748 29.07 22 29.07C20.6307 29.07 19.2988 29.0275 18.0163 28.9442C17.2705 27.8555 16.549 26.7137 15.8656 25.5332H15.8658C15.1842 24.3559 14.5568 23.1686 13.9884 21.988C14.5567 20.8047 15.1824 19.6161 15.8601 18.441L15.8599 18.4412C16.5394 17.2629 17.2545 16.1266 17.9934 15.0447C19.302 14.9458 20.6438 14.8942 21.9999 14.8942H22C23.3622 14.8942 24.7058 14.9462 26.0139 15.046C26.7415 16.12 27.4518 17.2525 28.134 18.431C28.8239 19.6227 29.4577 20.8034 30.0308 21.9613C29.4594 23.1392 28.827 24.3318 28.1402 25.5229ZM32.0177 4.53285C33.4911 5.38253 34.0641 8.80932 33.1384 13.3029C33.0793 13.5896 33.0128 13.8817 32.9406 14.1776C31.1151 13.7564 29.1329 13.443 27.0575 13.2483C25.8485 11.5266 24.5956 9.9614 23.338 8.60632C23.6761 8.28106 24.0137 7.97091 24.35 7.67823C27.5984 4.85129 30.6344 3.73516 32.0177 4.53285ZM22 18.0139C24.1699 18.0139 25.9291 19.7729 25.9291 21.9429C25.9291 24.1129 24.1699 25.872 22 25.872C19.8301 25.872 18.0709 24.1129 18.0709 21.9429C18.0709 19.7729 19.8301 18.0139 22 18.0139Z" fill="#00D8FF"/>
</svg>
