<svg width="45" height="44" viewBox="0 0 45 44" fill="none" xmlns="http://www.w3.org/2000/svg">
<g clip-path="url(#clip0_109_271)">
<mask id="mask0_109_271" style="mask-type:alpha" maskUnits="userSpaceOnUse" x="0" y="0" width="45" height="44">
<path d="M31.3245 43.7584C32.0202 44.0294 32.8136 44.012 33.5159 43.6742L42.6106 39.298C43.5662 38.8382 44.1739 37.8708 44.1739 36.8098V7.13649C44.1739 6.07542 43.5662 5.10824 42.6106 4.64838L33.5159 0.272059C32.5943 -0.171396 31.5157 -0.0627771 30.7069 0.52526C30.5913 0.609263 30.4812 0.703053 30.378 0.806413L12.9673 16.6905L5.38356 10.9338C4.67758 10.3979 3.69013 10.4418 3.03445 11.0383L0.602104 13.2508C-0.19991 13.9804 -0.200829 15.2421 0.600118 15.9729L7.17698 21.973L0.600118 27.9733C-0.200829 28.704 -0.19991 29.9658 0.602104 30.6953L3.03445 32.9078C3.69013 33.5043 4.67758 33.5482 5.38356 33.0124L12.9673 27.2556L30.378 43.1398C30.6534 43.4153 30.9768 43.6229 31.3245 43.7584ZM33.1372 11.9451L19.9264 21.973L33.1372 32.001V11.9451Z" fill="white"/>
</mask>
<g mask="url(#mask0_109_271)">
<path d="M42.6375 4.6552L33.5358 0.27285C32.4824 -0.234405 31.2232 -0.0204334 30.3963 0.806378L0.600482 27.9733C-0.200952 28.704 -0.200031 29.9658 0.60247 30.6953L3.03629 32.9078C3.69238 33.5043 4.68044 33.5482 5.38683 33.0124L41.268 5.79209C42.4717 4.8789 44.2007 5.73746 44.2007 7.24841V7.14274C44.2007 6.08214 43.5931 5.1153 42.6375 4.6552Z" fill="#0065A9"/>
<path d="M42.6375 39.2909L33.5358 43.6733C32.4824 44.1804 31.2232 43.9665 30.3963 43.1398L0.600482 15.9728C-0.200952 15.2421 -0.200031 13.9804 0.60247 13.2508L3.03629 11.0382C3.69238 10.4418 4.68044 10.3979 5.38683 10.9338L41.268 38.154C42.4717 39.0671 44.2007 38.2087 44.2007 36.6976V36.8034C44.2007 37.8639 43.5931 38.8307 42.6375 39.2909Z" fill="#007ACC"/>
<path d="M33.5073 43.6768C32.4535 44.1836 31.1943 43.9695 30.3675 43.1426C31.3862 44.1614 33.1283 43.4398 33.1283 41.9989V1.95281C33.1283 0.511972 31.3862 -0.209606 30.3675 0.809221C31.1943 -0.0176668 32.4535 -0.23194 33.5073 0.274867L42.6074 4.65119C43.5637 5.11105 44.1718 6.07823 44.1718 7.13931V36.8126C44.1718 37.8737 43.5637 38.8408 42.6074 39.3007L33.5073 43.6768Z" fill="#1F9CF0"/>
<path d="M31.3245 43.7583C32.0203 44.0292 32.8137 44.0119 33.5158 43.6741L42.6104 39.2977C43.5662 38.8379 44.1739 37.8707 44.1739 36.8097V7.13636C44.1739 6.07529 43.5662 5.10811 42.6106 4.64825L33.5158 0.271938C32.5943 -0.171518 31.5157 -0.0628994 30.7068 0.525137C30.5913 0.60914 30.4812 0.70293 30.3779 0.80629L12.9673 16.6904L5.38355 10.9337C4.67759 10.3978 3.69012 10.4417 3.03444 11.0381L0.602104 13.2507C-0.19991 13.9803 -0.200829 15.242 0.600118 15.9728L7.17699 21.9729L0.600118 27.9732C-0.200829 28.7039 -0.19991 29.9657 0.602104 30.6952L3.03444 32.9077C3.69012 33.5042 4.67759 33.5481 5.38355 33.0123L12.9673 27.2555L30.3779 43.1397C30.6533 43.4152 30.9768 43.6228 31.3245 43.7583ZM33.1372 11.945L19.9264 21.9729L33.1372 32.0009V11.945Z" fill="url(#paint0_linear_109_271)" fill-opacity="0.25"/>
</g>
</g>
<defs>
<linearGradient id="paint0_linear_109_271" x1="22.087" y1="-0.000122242" x2="22.087" y2="43.946" gradientUnits="userSpaceOnUse">
<stop stop-color="white"/>
<stop offset="1" stop-color="white" stop-opacity="0"/>
</linearGradient>
<clipPath id="clip0_109_271">
<rect width="44.3465" height="44" fill="white"/>
</clipPath>
</defs>
</svg>
