<svg width="44" height="44" viewBox="0 0 44 44" fill="none" xmlns="http://www.w3.org/2000/svg">
<path fill-rule="evenodd" clip-rule="evenodd" d="M22.039 43.4046C21.4479 43.4046 20.8963 43.247 20.3841 42.9712L15.1436 39.8585C14.3556 39.425 14.7496 39.2674 14.986 39.1886C16.0499 38.834 16.2469 38.7552 17.3501 38.1248C17.4683 38.046 17.6259 38.0854 17.7441 38.1642L21.7631 40.5677C21.9207 40.6465 22.1178 40.6465 22.236 40.5677L37.9573 31.4659C38.115 31.3871 38.1938 31.2294 38.1938 31.0324V12.8681C38.1938 12.6711 38.115 12.5135 37.9573 12.4347L22.236 3.37227C22.0784 3.29346 21.8813 3.29346 21.7631 3.37227L6.04176 12.4347C5.88416 12.5135 5.80535 12.7105 5.80535 12.8681V31.0324C5.80535 31.19 5.88416 31.3871 6.04176 31.4659L10.3366 33.9482C12.6613 35.1302 14.1192 33.7512 14.1192 32.3721V14.4442C14.1192 14.2078 14.3162 13.9714 14.592 13.9714H16.6015C16.8379 13.9714 17.0743 14.1684 17.0743 14.4442V32.3721C17.0743 35.4849 15.38 37.2973 12.4249 37.2973C11.5186 37.2973 10.8094 37.2973 8.7999 36.3123L4.66269 33.9482C3.63824 33.3571 3.00781 32.2539 3.00781 31.0718V12.9075C3.00781 11.7255 3.63824 10.6222 4.66269 10.0312L20.3841 0.929345C21.3691 0.377718 22.7088 0.377718 23.6938 0.929345L39.4152 10.0312C40.4397 10.6222 41.0701 11.7255 41.0701 12.9075V31.0718C41.0701 32.2539 40.4397 33.3571 39.4152 33.9482L23.6938 43.05C23.1816 43.2864 22.5906 43.4046 22.039 43.4046ZM26.8854 30.9142C19.9901 30.9142 18.5716 27.7621 18.5716 25.0827C18.5716 24.8463 18.7686 24.6099 19.0444 24.6099H21.0933C21.3297 24.6099 21.5267 24.7675 21.5267 25.0039C21.8419 27.0922 22.7482 28.1167 26.9248 28.1167C30.2346 28.1167 31.653 27.3681 31.653 25.595C31.653 24.5705 31.259 23.8219 26.0974 23.3097C21.8025 22.8762 19.1232 21.9306 19.1232 18.5026C19.1232 15.3111 21.8025 13.4198 26.2944 13.4198C31.3378 13.4198 33.8201 15.1534 34.1354 18.936C34.1354 19.0542 34.096 19.1724 34.0172 19.2907C33.9383 19.3695 33.8201 19.4483 33.7019 19.4483H31.653C31.456 19.4483 31.259 19.2907 31.2196 19.0936C30.7468 16.9265 29.5253 16.2173 26.2944 16.2173C22.6694 16.2173 22.236 17.4782 22.236 18.4238C22.236 19.5665 22.7482 19.9211 27.634 20.5515C32.4805 21.1819 34.7658 22.0882 34.7658 25.4768C34.7264 28.9441 31.8894 30.9142 26.8854 30.9142Z" fill="#343A40"/>
</svg>
