<svg width="151" height="24" viewBox="0 0 151 24" fill="none" xmlns="http://www.w3.org/2000/svg">
<path d="M0.76375 0.823999C1.65975 0.653332 2.64108 0.525332 3.70775 0.439999C4.79575 0.333332 5.87308 0.279999 6.93975 0.279999C8.04908 0.279999 9.15842 0.375999 10.2678 0.567999C11.3984 0.738666 12.4118 1.10133 13.3078 1.656C14.2038 2.18933 14.9291 2.94667 15.4838 3.928C16.0598 4.888 16.3478 6.14667 16.3478 7.704C16.3478 9.112 16.1024 10.3067 15.6118 11.288C15.1211 12.248 14.4704 13.0373 13.6598 13.656C12.8491 14.2747 11.9211 14.7227 10.8758 15C9.85175 15.2773 8.78508 15.416 7.67575 15.416C7.56908 15.416 7.39842 15.416 7.16375 15.416C6.92908 15.416 6.68375 15.416 6.42775 15.416C6.17175 15.3947 5.91575 15.3733 5.65975 15.352C5.42508 15.3307 5.25442 15.3093 5.14775 15.288V23H0.76375V0.823999ZM7.29175 4.056C6.86508 4.056 6.45975 4.07733 6.07575 4.12C5.69175 4.14133 5.38242 4.17333 5.14775 4.216V11.48C5.23308 11.5013 5.36108 11.5227 5.53175 11.544C5.70242 11.5653 5.88375 11.5867 6.07575 11.608C6.26775 11.608 6.44908 11.608 6.61975 11.608C6.81175 11.608 6.95042 11.608 7.03575 11.608C7.61175 11.608 8.17708 11.5547 8.73175 11.448C9.30775 11.3413 9.81975 11.1493 10.2678 10.872C10.7158 10.5733 11.0678 10.168 11.3238 9.656C11.6011 9.144 11.7398 8.472 11.7398 7.64C11.7398 6.936 11.6118 6.36 11.3558 5.912C11.0998 5.44267 10.7584 5.06933 10.3318 4.792C9.92642 4.51467 9.45708 4.32267 8.92375 4.216C8.39042 4.10933 7.84642 4.056 7.29175 4.056ZM32.3563 6.072C32.3563 7.16 32.1536 8.25867 31.7483 9.368C31.3643 10.4773 30.8629 11.5653 30.2443 12.632C29.6469 13.6987 28.9749 14.7333 28.2283 15.736C27.5029 16.7173 26.7883 17.624 26.0843 18.456L24.3883 19.768V19.928L26.6923 19.48H32.8363V23H19.3643V20.856C19.8763 20.3227 20.4523 19.704 21.0923 19C21.7323 18.2747 22.3723 17.5173 23.0123 16.728C23.6736 15.9173 24.3136 15.0853 24.9323 14.232C25.5509 13.3787 26.1056 12.5253 26.5963 11.672C27.0869 10.7973 27.4709 9.95467 27.7483 9.144C28.0469 8.33333 28.1963 7.56533 28.1963 6.84C28.1963 5.96533 27.9403 5.25067 27.4283 4.696C26.9376 4.12 26.1483 3.832 25.0603 3.832C24.3776 3.832 23.6736 3.98133 22.9483 4.28C22.2443 4.55733 21.6469 4.92 21.1562 5.368L19.4923 2.424C20.3243 1.74133 21.2629 1.19733 22.3083 0.792C23.3749 0.365332 24.6229 0.151999 26.0523 0.151999C26.9696 0.151999 27.8123 0.279999 28.5803 0.535999C29.3483 0.791999 30.0096 1.16533 30.5643 1.656C31.1189 2.14666 31.5563 2.76533 31.8763 3.512C32.1963 4.23733 32.3563 5.09067 32.3563 6.072ZM37.2325 0.823999C38.1285 0.653332 39.1098 0.525332 40.1765 0.439999C41.2645 0.333332 42.3418 0.279999 43.4085 0.279999C44.5178 0.279999 45.6272 0.375999 46.7365 0.567999C47.8672 0.738666 48.8805 1.10133 49.7765 1.656C50.6725 2.18933 51.3978 2.94667 51.9525 3.928C52.5285 4.888 52.8165 6.14667 52.8165 7.704C52.8165 9.112 52.5712 10.3067 52.0805 11.288C51.5898 12.248 50.9392 13.0373 50.1285 13.656C49.3178 14.2747 48.3898 14.7227 47.3445 15C46.3205 15.2773 45.2538 15.416 44.1445 15.416C44.0378 15.416 43.8672 15.416 43.6325 15.416C43.3978 15.416 43.1525 15.416 42.8965 15.416C42.6405 15.3947 42.3845 15.3733 42.1285 15.352C41.8938 15.3307 41.7232 15.3093 41.6165 15.288V23H37.2325V0.823999ZM43.7605 4.056C43.3338 4.056 42.9285 4.07733 42.5445 4.12C42.1605 4.14133 41.8512 4.17333 41.6165 4.216V11.48C41.7018 11.5013 41.8298 11.5227 42.0005 11.544C42.1712 11.5653 42.3525 11.5867 42.5445 11.608C42.7365 11.608 42.9178 11.608 43.0885 11.608C43.2805 11.608 43.4192 11.608 43.5045 11.608C44.0805 11.608 44.6458 11.5547 45.2005 11.448C45.7765 11.3413 46.2885 11.1493 46.7365 10.872C47.1845 10.5733 47.5365 10.168 47.7925 9.656C48.0698 9.144 48.2085 8.472 48.2085 7.64C48.2085 6.936 48.0805 6.36 47.8245 5.912C47.5685 5.44267 47.2272 5.06933 46.8005 4.792C46.3952 4.51467 45.9258 4.32267 45.3925 4.216C44.8592 4.10933 44.3152 4.056 43.7605 4.056ZM55.545 0.823999C56.0357 0.738666 56.5583 0.663999 57.113 0.599998C57.689 0.514665 58.2543 0.450665 58.809 0.407999C59.385 0.365333 59.9397 0.333333 60.473 0.311998C61.0063 0.290665 61.497 0.279999 61.945 0.279999C62.9903 0.279999 64.0143 0.375999 65.017 0.567999C66.041 0.759999 66.9477 1.09067 67.737 1.56C68.5477 2.02933 69.1877 2.68 69.657 3.512C70.1477 4.32267 70.393 5.34667 70.393 6.584C70.393 8.41867 69.9663 9.912 69.113 11.064C68.2597 12.216 67.1183 13.016 65.689 13.464L67.257 14.456L72.377 23H67.321L62.233 14.232L59.929 13.816V23H55.545V0.823999ZM62.265 4.184C61.817 4.184 61.369 4.19467 60.921 4.216C60.4943 4.23733 60.1637 4.28 59.929 4.344V10.84H61.785C63.001 10.84 63.9717 10.5627 64.697 10.008C65.4223 9.45333 65.785 8.536 65.785 7.256C65.785 6.296 65.4863 5.54933 64.889 5.016C64.2917 4.46133 63.417 4.184 62.265 4.184ZM85.9678 21.624C85.3278 22.136 84.4531 22.5733 83.3438 22.936C82.2558 23.2773 81.0931 23.448 79.8558 23.448C77.2744 23.448 75.3864 22.7013 74.1918 21.208C72.9971 19.6933 72.3997 17.624 72.3997 15C72.3997 12.184 73.0718 10.072 74.4158 8.664C75.7598 7.256 77.6478 6.552 80.0798 6.552C80.8904 6.552 81.6798 6.65867 82.4478 6.872C83.2158 7.08533 83.8984 7.43733 84.4958 7.928C85.0931 8.41867 85.5731 9.08 85.9358 9.912C86.2984 10.744 86.4798 11.7787 86.4798 13.016C86.4798 13.464 86.4478 13.944 86.3838 14.456C86.3411 14.968 86.2664 15.5013 86.1598 16.056H76.5598C76.6238 17.4 76.9651 18.4133 77.5838 19.096C78.2238 19.7787 79.2478 20.12 80.6558 20.12C81.5304 20.12 82.3091 19.992 82.9918 19.736C83.6958 19.4587 84.2291 19.1813 84.5918 18.904L85.9678 21.624ZM80.0158 9.88C78.9278 9.88 78.1171 10.2107 77.5838 10.872C77.0718 11.512 76.7624 12.376 76.6558 13.464H82.6078C82.6931 12.312 82.5118 11.4267 82.0638 10.808C81.6371 10.1893 80.9544 9.88 80.0158 9.88ZM94.5163 15.384L95.0603 17.848H95.2203L95.6683 15.32L98.3883 7H102.868L96.1803 23.16H93.6523L86.7082 7H91.5403L94.5163 15.384ZM104.582 7H108.742V23H104.582V7ZM103.974 2.488C103.974 1.86933 104.198 1.34667 104.646 0.919998C105.116 0.471999 105.756 0.247999 106.566 0.247999C107.377 0.247999 108.028 0.471999 108.518 0.919998C109.03 1.34667 109.286 1.86933 109.286 2.488C109.286 3.10667 109.03 3.62933 108.518 4.056C108.028 4.46133 107.377 4.664 106.566 4.664C105.756 4.664 105.116 4.46133 104.646 4.056C104.198 3.62933 103.974 3.10667 103.974 2.488ZM125.624 21.624C124.984 22.136 124.109 22.5733 123 22.936C121.912 23.2773 120.749 23.448 119.512 23.448C116.931 23.448 115.043 22.7013 113.848 21.208C112.653 19.6933 112.056 17.624 112.056 15C112.056 12.184 112.728 10.072 114.072 8.664C115.416 7.256 117.304 6.552 119.736 6.552C120.547 6.552 121.336 6.65867 122.104 6.872C122.872 7.08533 123.555 7.43733 124.152 7.928C124.749 8.41867 125.229 9.08 125.592 9.912C125.955 10.744 126.136 11.7787 126.136 13.016C126.136 13.464 126.104 13.944 126.04 14.456C125.997 14.968 125.923 15.5013 125.816 16.056H116.216C116.28 17.4 116.621 18.4133 117.24 19.096C117.88 19.7787 118.904 20.12 120.312 20.12C121.187 20.12 121.965 19.992 122.648 19.736C123.352 19.4587 123.885 19.1813 124.248 18.904L125.624 21.624ZM119.672 9.88C118.584 9.88 117.773 10.2107 117.24 10.872C116.728 11.512 116.419 12.376 116.312 13.464H122.264C122.349 12.312 122.168 11.4267 121.72 10.808C121.293 10.1893 120.611 9.88 119.672 9.88ZM140.502 7L143.414 15.192L143.99 17.848H144.118L144.566 15.16L146.614 7H150.422L145.494 23.16H142.422L139.19 14.2L138.774 12.184H138.614L138.23 14.232L135.158 23.16H131.99L126.838 7H131.35L133.686 15.032L134.07 17.88H134.23L134.774 15L137.43 7H140.502Z" fill="#4E4BFF"/>
</svg>
