<svg width="44" height="44" viewBox="0 0 44 44" fill="none" xmlns="http://www.w3.org/2000/svg">
<path fill-rule="evenodd" clip-rule="evenodd" d="M6.10888 39.6016L2.57812 0H41.3751L37.8406 39.5954L21.9529 44L6.10888 39.6016Z" fill="#343A40"/>
<path fill-rule="evenodd" clip-rule="evenodd" d="M21.9766 40.6333L34.8147 37.0741L37.8351 3.23804H21.9766V40.6333Z" fill="#6D757D"/>
<path d="M15.5495 17.9257H21.9766V22.7827H11.1076L9.79761 8.09509H21.9766V12.9521H15.1057L15.5495 17.9257Z" fill="#EBEBEB"/>
<path d="M21.9553 30.5455L21.9766 30.5398V35.5931L21.9542 35.5993L12.0051 32.8374L11.3246 25.2112H16.2003L16.5461 29.0849L21.9553 30.5455Z" fill="#EBEBEB"/>
<path d="M21.9598 8.09509H34.1266L33.6917 12.9521H21.9598V8.09509Z" fill="white"/>
<path d="M21.9598 22.7827V17.9257H33.2498L33.1313 19.23L31.9169 32.8374L21.9598 35.597V30.5439L27.3769 29.0818L27.9406 22.7827H21.9598Z" fill="white"/>
</svg>
