<svg width="44" height="44" viewBox="0 0 44 44" fill="none" xmlns="http://www.w3.org/2000/svg">
<g clip-path="url(#clip0_109_138)">
<path fill-rule="evenodd" clip-rule="evenodd" d="M0 0H44V44H0V0ZM11.5692 36.7696C12.5439 38.8368 14.464 40.5498 17.7716 40.5498C21.4341 40.5498 23.9445 38.6004 23.9445 34.3178V20.2003H19.8096V34.2593C19.8096 36.3266 18.953 36.8581 17.5943 36.8581C16.1769 36.8581 15.586 35.8836 14.9364 34.7319L11.5692 36.7696ZM29.5572 34.3772L26.1905 36.3265C27.4013 38.719 29.8824 40.5501 33.722 40.5501C37.6501 40.5501 40.5741 38.5124 40.5741 34.7907C40.5741 31.3351 38.5951 29.7995 35.0804 28.293L34.0467 27.85C32.2748 27.0821 31.5068 26.5798 31.5068 25.3393C31.5068 24.3353 32.2748 23.5674 33.4857 23.5674C34.6671 23.5674 35.4348 24.0694 36.1437 25.3393L39.3631 23.2719C38.0046 20.8795 36.1144 19.9638 33.4857 19.9638C29.7936 19.9638 27.4308 22.3268 27.4308 25.428C27.4308 28.7951 29.4097 30.39 32.393 31.6598L33.4265 32.1032C35.3168 32.9299 36.4391 33.432 36.4391 34.8497C36.4391 36.0312 35.3465 36.8878 33.6333 36.8878C31.5954 36.8878 30.4435 35.8246 29.5572 34.3772Z" fill="#343A40"/>
</g>
<defs>
<clipPath id="clip0_109_138">
<rect width="44" height="44" fill="white"/>
</clipPath>
</defs>
</svg>
